<svg width="1024" height="1024" viewBox="0 0 1024 1024" fill="none" xmlns="http://www.w3.org/2000/svg">
<path d="M916.056 209.944C906.562 200.451 895.292 192.92 882.888 187.782C870.484 182.644 857.19 180 843.764 180C830.339 180 817.044 182.644 804.64 187.782C792.237 192.92 780.966 200.451 771.473 209.944L383.706 597.711L251.527 465.532C242.034 456.039 230.763 448.508 218.359 443.37C205.956 438.233 192.661 435.588 179.236 435.588C152.121 435.588 126.117 446.359 106.944 465.532C97.4506 475.026 89.92 486.296 84.7822 498.7C79.6444 511.104 77 524.398 77 537.824C77 564.938 87.7712 590.942 106.944 610.115L311.414 814.586C320.908 824.079 332.178 831.61 344.582 836.748C356.986 841.885 370.28 844.53 383.706 844.53C397.132 844.53 410.426 841.885 422.83 836.748C435.234 831.61 446.504 824.079 455.997 814.586L916.056 354.527C925.549 345.034 933.08 333.763 938.218 321.36C943.356 308.956 946 295.662 946 282.236C946 268.81 943.356 255.516 938.218 243.112C933.08 230.708 925.549 219.438 916.056 209.944Z" fill="#0F0068"/>
</svg>
