<svg width="30" height="30" viewBox="0 0 30 30" fill="none" xmlns="http://www.w3.org/2000/svg">
<path d="M20.625 11.25C20.625 14.3566 18.1066 16.875 15 16.875C11.8934 16.875 9.375 14.3566 9.375 11.25C9.375 8.1434 11.8934 5.625 15 5.625C18.1066 5.625 20.625 8.1434 20.625 11.25Z" fill="white"/>
<path fill-rule="evenodd" clip-rule="evenodd" d="M0 15C0 6.71573 6.71573 0 15 0C23.2843 0 30 6.71573 30 15C30 23.2843 23.2843 30 15 30C6.71573 30 0 23.2843 0 15ZM15 1.875C7.75126 1.875 1.875 7.75126 1.875 15C1.875 18.1002 2.94986 20.9493 4.74724 23.1951C6.08049 21.0473 9.0087 18.75 15 18.75C20.9913 18.75 23.9195 21.0473 25.2528 23.1951C27.0502 20.9493 28.125 18.1002 28.125 15C28.125 7.75126 22.2487 1.875 15 1.875Z" fill="white"/>
</svg>
