<svg width="62" height="43" viewBox="0 0 62 43" fill="none" xmlns="http://www.w3.org/2000/svg">
<path d="M3 3.36194L12.3798 34.4926C12.9028 36.2284 15.4242 36.0209 15.6564 34.2229L18.3065 13.7007C18.5509 11.8076 21.2609 11.7223 21.6239 13.5963L25.6443 34.3526C25.9885 36.13 28.5132 36.1819 28.9303 34.4202L36.283 3.36194" stroke="white" stroke-width="5.04288" stroke-linecap="round"/>
<path d="M39.9812 3.36194V32.7788C39.9812 34.6355 41.4864 36.1407 43.3431 36.1407H59" stroke="white" stroke-width="5.04288" stroke-linecap="round"/>
<path d="M40.0374 10.5442C40.0374 13.1229 39.4175 15.3469 38.5334 16.8491C37.6185 18.4036 36.6826 18.8191 36.101 18.8191C35.5195 18.8191 34.5836 18.4036 33.6687 16.8491C32.7846 15.3469 32.1647 13.1229 32.1647 10.5442C32.1647 7.9655 32.7846 5.74157 33.6687 4.23935C34.5836 2.68486 35.5195 2.2693 36.101 2.2693C36.6826 2.2693 37.6185 2.68486 38.5334 4.23935C39.4175 5.74157 40.0374 7.9655 40.0374 10.5442Z" fill="#0F0068" stroke="#12B80F" stroke-width="4.53859"/>
<path d="M40.0374 28.1179C40.0374 30.6966 39.4175 32.9205 38.5334 34.4228C37.6185 35.9773 36.6826 36.3928 36.101 36.3928C35.5195 36.3928 34.5836 35.9773 33.6687 34.4228C32.7846 32.9205 32.1647 30.6966 32.1647 28.1179C32.1647 25.5392 32.7846 23.3152 33.6687 21.813C34.5836 20.2585 35.5195 19.843 36.101 19.843C36.6826 19.843 37.6185 20.2585 38.5334 21.813C39.4175 23.3152 40.0374 25.5392 40.0374 28.1179Z" fill="#0F0068" stroke="#12B80F" stroke-width="4.53859"/>
<line x1="2.2693" y1="-2.2693" x2="6.5369" y2="-2.2693" transform="matrix(0.499463 -0.866335 0.87013 0.492823 42.3066 30.4748)" stroke="#12B80F" stroke-width="4.53859" stroke-linecap="round"/>
<line x1="2.2693" y1="-2.2693" x2="6.5369" y2="-2.2693" transform="matrix(0.499463 0.866335 0.87013 -0.492823 42.3066 26.3605)" stroke="#12B80F" stroke-width="4.53859" stroke-linecap="round"/>
</svg>
